<svg width="24" height="30" viewBox="0 0 24 30" fill="none" xmlns="http://www.w3.org/2000/svg">
<path fill-rule="evenodd" clip-rule="evenodd" d="M16.5 0H7.2C4.67976 0 3.41965 0 2.45704 0.490471C1.61031 0.921901 0.921901 1.61031 0.490471 2.45704C0 3.41965 0 4.67976 0 7.2V22.8C0 25.3202 0 26.5804 0.490471 27.543C0.921901 28.3897 1.61031 29.0781 2.45704 29.5095C3.41965 30 4.67976 30 7.2 30H16.8C19.3202 30 20.5804 30 21.543 29.5095C22.3897 29.0781 23.0781 28.3897 23.5095 27.543C24 26.5804 24 25.3202 24 22.8V7.5L16.5 0ZM15 2.25V7.8C15 8.22004 15 8.43006 15.0817 8.59049C15.1537 8.73162 15.2684 8.84635 15.4095 8.91825C15.5699 9 15.78 9 16.2 9H21.75L15 2.25ZM6 9C5.17157 9 4.5 9.67157 4.5 10.5C4.5 11.3284 5.17157 12 6 12H7.5C8.32843 12 9 11.3284 9 10.5C9 9.67157 8.32843 9 7.5 9H6ZM6 15C5.17157 15 4.5 15.6716 4.5 16.5C4.5 17.3284 5.17157 18 6 18H18C18.8284 18 19.5 17.3284 19.5 16.5C19.5 15.6716 18.8284 15 18 15H6ZM6 21C5.17157 21 4.5 21.6716 4.5 22.5C4.5 23.3284 5.17157 24 6 24H18C18.8284 24 19.5 23.3284 19.5 22.5C19.5 21.6716 18.8284 21 18 21H6Z" fill="#E1056D"/>
</svg>
